<svg xmlns="http://www.w3.org/2000/svg" version="1.0"  viewBox="0 0 300.000000 300.000000" preserveAspectRatio="xMidYMid meet">

<g transform="translate(0.000000,300.000000) scale(0.100000,-0.100000)" fill="#9500fd" stroke="none">
<path d="M834 2203 c-21 -32 -74 -109 -118 -171 -74 -107 -78 -115 -65 -139 14 -26 145 -217 198 -290 l31 -42 731 0 c588 0 730 2 726 12 -3 7 -31 51 -63 98 -31 46 -71 103 -86 127 l-29 42 -589 0 -589 0 -20 29 c-27 37 -26 55 1 91 l22 30 587 0 588 0 90 130 c50 71 91 132 91 135 0 3 -330 5 -733 5 l-734 0 -39 -57z"/>

</g>
<g transform="translate(0.000000,300.000000) scale(0.100000,-0.100000)" fill="#fff" stroke="none">
<path d="M976 1408 c13 -22 626 -913 634 -921 4 -5 37 33 73 85 101 146 96 128 54 186 -20 27 -37 52 -37 56 0 3 35 6 78 6 l77 0 68 99 c37 55 67 102 67 105 0 3 -100 7 -222 8 l-222 3 -43 60 c-23 33 -42 66 -43 73 0 9 71 12 323 12 l322 1 75 110 c41 61 77 115 78 120 2 5 -258 9 -643 9 -514 0 -645 -3 -639 -12z"/>
</g>
</svg>